<svg xmlns="http://www.w3.org/2000/svg" id="Isolation_Mode" data-name="Isolation Mode" viewBox="0 0 24 24" width="300" height="300" version="1.1" xmlns:xlink="http://www.w3.org/1999/xlink" xmlns:svgjs="http://svgjs.dev/svgjs"><g transform="matrix(1,0,0,1,0,0)"><path d="M23,3H18V2.5A2.5,2.5,0,0,0,15.5,0h-7A2.5,2.5,0,0,0,6,2.5V3H1V6H3V21a3,3,0,0,0,3,3H18a3,3,0,0,0,3-3V6h2ZM18,21H6V6H18Z" fill="#ffffffff" data-original-color="#000000ff" stroke="none"/><rect x="8" y="9" width="3" height="9" fill="#ffffffff" data-original-color="#000000ff" stroke="none"/><rect x="13" y="9" width="3" height="9" fill="#ffffffff" data-original-color="#000000ff" stroke="none"/></g></svg>